<?xml version="1.0" encoding="utf-8"?>
<!-- Generator: Adobe Illustrator 22.0.1, SVG Export Plug-In . SVG Version: 6.00 Build 0)  -->
<svg version="1.1" id="Layer_1" xmlns="http://www.w3.org/2000/svg" xmlns:xlink="http://www.w3.org/1999/xlink" x="0px" y="0px"
	 viewBox="0 0 214 207" style="enable-background:new 0 0 214 207;" xml:space="preserve">
<style type="text/css">
	.st0{fill:none;stroke:#FFFFFF;stroke-width:4;}
	.st1{fill:#FFFFFF;}
	.st2{font-family:'Roboto-Medium';}
	.st3{font-size:21.504px;}
	.st4{letter-spacing:1;}
</style>
<title>Group 8</title>
<desc>Created with Sketch.</desc>
<g>
	<g id="Website">
		<g id="What-we-do" transform="translate(-992.000000, -2213.000000)">
			<g id="Group-8" transform="translate(992.000000, 2213.000000)">
				<path id="Rectangle" class="st0" d="M6.6,2h200.8c2.5,0,4.6,2.1,4.6,4.6v193.8c0,2.5-2.1,4.6-4.6,4.6H6.6
					c-2.5,0-4.6-2.1-4.6-4.6V6.6C2,4.1,4.1,2,6.6,2z"/>
				<path id="Shape" class="st1" d="M174,91.6c-0.1,0-0.3,0-0.4,0c-7,0-14.5,0-21.4,0c-0.3,0-0.5,0.1-0.7,0.4
					c-1.1,1.9-2.2,3.8-3.2,5.6c-0.1,0.1-0.1,0.2-0.2,0.4h19.2v5.4h-0.5c-6.9,0-14.4,0-21.4,0c-0.3,0-0.6,0.1-0.7,0.4
					c-4.7,8.2-9.4,16.3-14.1,24.5c-0.1,0.2-0.2,0.4-0.3,0.6c-0.1-0.1-0.2-0.2-0.3-0.3c-1.1-1.1-2.2-2.2-3.3-3.3
					c-0.2-0.2-0.3-0.4-0.1-0.7c5.7-9.9,11.4-19.7,17.1-29.6c1.1-1.9,2.2-3.8,3.3-5.7c0.1-0.2,0.1-0.5,0-0.7
					c-6.8-11.7-13.5-23.4-20.3-35.2c-0.2-0.4-0.2-0.5,0.1-0.8c1.2-1.2,2.4-2.4,3.6-3.6c0.1,0.1,0.2,0.2,0.2,0.3
					c4.7,8.2,9.5,16.4,14.2,24.6c0.1,0.3,0.4,0.4,0.7,0.4c6.9,0,14.4,0,21.3,0c0.6,0,0.5,0,0.5,0.5c0,1.4,0,2.9,0,4.3v0.5H148
					c0.1,0.1,0.1,0.2,0.2,0.3c1.1,1.9,2.2,3.9,3.3,5.8c0.1,0.2,0.3,0.3,0.5,0.3c7,0,14.6,0,21.7,0c0.1,0,0.2,0,0.3,0V91.6z M38,91.7
					c0.1,0,0.3,0,0.3,0c7.1,0,14.5,0,21.7,0c0.2,0,0.4,0.1,0.4,0.3c1.1,2,2.3,3.9,3.4,5.9c0,0.1,0.1,0.2,0.1,0.3H45v5.4h0.5
					c7,0,14.2,0,21.2,0c0.3,0,0.6,0.1,0.7,0.4c4.8,8.2,9.5,16.4,14.3,24.6c0.1,0.2,0.2,0.3,0.3,0.5c1.3-1.3,2.6-2.5,3.8-3.8
					c0.1-0.1,0.1-0.2,0-0.3c0-0.1-0.1-0.2-0.2-0.3c-6.8-11.7-13.7-23.5-20.5-35.2c-0.2-0.2-0.2-0.5,0-0.7c2.7-4.7,5.5-9.4,8.2-14.1
					c4.1-7.1,8.3-14.2,12.4-21.3c0.1-0.1,0.1-0.2,0.1-0.3c0-0.1-0.1-0.2-0.2-0.3c-1.2-1.1-2.3-2.3-3.5-3.5c-0.1-0.1-0.1-0.1-0.2-0.2
					c-0.1,0.1-0.2,0.2-0.2,0.4c-4.8,8.2-9.6,16.5-14.4,24.7c-0.1,0.3-0.4,0.5-0.8,0.4c-7,0-14.2,0-21.2,0c-0.3,0-0.5,0.1-0.5,0.4
					c0,1.5,0,3,0,4.5c0,0.1,0,0.3,0,0.4h19c-0.1,0.2-0.1,0.3-0.2,0.4c-1.1,1.9-2.2,3.8-3.3,5.7c-0.1,0.3-0.4,0.4-0.7,0.4
					c-7,0-14.3,0-21.3,0c-0.1,0-0.3,0-0.4,0L38,91.7z M94.3,110.3h25v-6.7h-18.2V67.7h-6.8V110.3z"/>
				<path id="LEDGERIUM-Copy" class="st1" d="M66.2,143.1v8.9h4.5v1.8H64v-10.7H66.2z M72.8,143.1h6.6v1.8H75v2.4h4v1.8h-4v2.8h4.5
					v1.8h-6.6V143.1z M85.8,153.9H82v-10.7h3.8c2.4,0,4.1,1.2,4.1,4.7v1.4C89.9,152.6,88.2,153.9,85.8,153.9z M85.8,152
					c1.4,0,1.9-1,1.9-2.8v-1.4c0-1.8-0.5-2.8-1.9-2.8h-1.6v7H85.8z M96.8,148.3h3.9v1c0,3.3-1.5,4.7-3.9,4.7c-2.4,0-4.1-1.5-4.1-4.7
					v-1.4c0-3.5,1.7-4.9,4.1-4.9c2.2,0,3.6,1.3,3.9,3.5h-2.1c-0.2-1-0.8-1.6-1.8-1.6c-1.2,0-1.9,0.9-1.9,2.9v1.5
					c0,2.1,0.7,2.9,1.9,2.9c1.2,0,1.7-0.8,1.8-2.1h-1.8V148.3z M103.3,143.1h6.6v1.8h-4.5v2.4h4v1.8h-4v2.8h4.5v1.8h-6.6V143.1z
					 M120.6,153.9h-2.4l-1.9-4.2h-1.7v4.2h-2.2v-10.7h3.8c2.4,0,4,1.1,4,3.3c0,1.4-0.7,2.4-1.8,2.9L120.6,153.9z M114.6,147.8h1.4
					c1.3,0,2-0.3,2-1.4c0-1.1-0.7-1.4-2-1.4h-1.4V147.8z M125.3,143.1v10.7h-2.2v-10.7H125.3z M134.7,143.1h2.2v6.4
					c0,3.2-1.7,4.5-4.1,4.5s-4.1-1.3-4.1-4.5v-6.4h2.2v6.4c0,1.8,0.6,2.6,1.9,2.6c1.3,0,1.9-0.8,1.9-2.6V143.1z M142,143.1l3,5.8
					l2.9-5.8h2v10.7h-2.1v-6.6l-2.3,4.7h-1.3l-2.3-4.7v6.6h-2v-10.7H142z"/>
				<text transform="matrix(1 0 0 1 17 36)" class="st1 st2 st3 st4">0X17</text>
			</g>
		</g>
	</g>
	<g>
		<path class="st1" d="M85.6,173.7l2.9-5.8h4.6l-5,8.6l5.3,8.7h-4.9l-2.9-6l-2.9,6h-4.6l5.1-8.7l-5-8.6h4.6L85.6,173.7z"/>
		<path class="st1" d="M106.1,182h7.5v3.1h-11.5v-17.3h4V182z"/>
		<path class="st1" d="M135.9,182.7c-0.6,0.7-1.4,1.3-2.6,1.8c-1.1,0.5-2.5,0.8-4.2,0.8c-2.1,0-3.9-0.7-5.2-2c-1.3-1.3-2-3-2-5.1
			v-3.6c0-2.1,0.7-3.8,2-5.1s3-2,5-2c2.2,0,3.9,0.5,5,1.5c1.1,1,1.7,2.4,1.9,4.2l0,0.1H132c-0.1-0.9-0.4-1.6-0.9-2.1
			c-0.5-0.5-1.2-0.7-2.1-0.7c-0.9,0-1.7,0.4-2.3,1.1c-0.6,0.7-0.9,1.7-0.9,2.9v3.6c0,1.2,0.3,2.2,0.8,2.9c0.6,0.7,1.4,1.1,2.4,1.1
			c0.7,0,1.3-0.1,1.7-0.2c0.4-0.1,0.8-0.3,1-0.5v-2.7h-2.7v-2.7h6.7V182.7z"/>
	</g>
</g>
</svg>
