<?xml version="1.0" encoding="UTF-8"?>
<svg width="214px" height="207px" viewBox="0 0 214 207" version="1.1" xmlns="http://www.w3.org/2000/svg" xmlns:xlink="http://www.w3.org/1999/xlink">
    <!-- Generator: Sketch 52.2 (67145) - http://www.bohemiancoding.com/sketch -->
    <title>Group 8</title>
    <desc>Created with Sketch.</desc>
    <g id="Website" stroke="none" stroke-width="1" fill="none" fill-rule="evenodd">
        <g id="What-we-do" transform="translate(-992.000000, -2213.000000)">
            <g id="Group-8" transform="translate(992.000000, 2213.000000)">
                <rect id="Rectangle" stroke="#FFFFFF" stroke-width="4" fill-rule="nonzero" x="2" y="2" width="210" height="203" rx="4.608"></rect>
                <path d="M174,91.5936916 C173.85743,91.5936916 173.712667,91.5739092 173.561324,91.5739092 C166.593692,91.5739092 159.081592,91.5739092 152.112497,91.5739092 C151.83064,91.5510584 151.565731,91.7112266 151.454484,91.9717551 C150.381921,93.8598747 149.289619,95.7392021 148.20609,97.6207276 C148.149062,97.7218376 148.096421,97.8273437 148.013073,97.9899989 L167.187366,97.9899989 L167.187366,103.390592 L166.707016,103.390592 C159.76278,103.390592 152.273345,103.390592 145.326184,103.390592 C145.040769,103.362993 144.769062,103.518962 144.64843,103.779646 C139.951675,111.947577 135.249072,120.111111 130.540619,128.270249 C130.439723,128.448291 130.334441,128.621936 130.205032,128.837345 C130.09317,128.734037 129.996661,128.650511 129.906732,128.560391 C128.796883,127.461369 127.695807,126.333773 126.57499,125.236949 C126.335912,125.001758 126.303011,124.847895 126.478482,124.544565 C132.181266,114.672418 137.876739,104.79734 143.564901,94.9193318 C144.66159,93.018024 145.758279,91.11232 146.854969,89.2176063 C146.996269,89.0206073 146.996269,88.7551923 146.854969,88.5581932 C140.090589,76.8352933 133.326941,65.1123933 126.564024,53.3894934 C126.360039,53.0356083 126.395133,52.8421805 126.678079,52.5652269 C127.864697,51.3892735 129.031574,50.206726 130.231352,49 C130.312507,49.1274865 130.384889,49.2351907 130.45069,49.3450929 C135.182539,57.559915 139.914388,65.7762025 144.646236,73.9939554 C144.77639,74.2621705 145.06119,74.4189674 145.356891,74.3852072 C152.276269,74.3734843 159.740115,74.3734843 166.660955,74.3852072 C167.286068,74.3852072 167.204913,74.3478404 167.204913,74.928124 C167.204913,76.3766348 167.204913,77.8273437 167.204913,79.2758545 L167.204913,79.7484339 L148.004299,79.7484339 C148.076681,79.8957028 148.116161,79.9924167 148.166609,80.0803385 C149.280845,82.014617 150.399469,83.9444994 151.504931,85.883174 C151.592087,86.0821325 151.795473,86.2038943 152.011602,86.186504 C159.052347,86.186504 166.636828,86.186504 173.677573,86.186504 C173.785049,86.186504 173.896911,86.1689197 174,86.1601275 L174,91.5936916 Z M38,91.7057918 C38.0731131,91.7057918 38.2734884,91.6860095 38.3488171,91.6860095 C45.4858372,91.6860095 52.8733941,91.6860095 60.0089372,91.6860095 C60.2005874,91.6719208 60.3795455,91.7819982 60.4520468,91.9585669 C61.5834536,93.9177565 62.72003,95.8732828 63.8617759,97.8251456 C63.9089319,97.9196134 63.9510847,98.0164591 63.9880622,98.1152874 L45.0131868,98.1152874 L45.0131868,103.498297 L45.5028231,103.498297 C52.493617,103.498297 59.7349477,103.498297 66.7242645,103.498297 C67.0126179,103.473738 67.2852226,103.632308 67.4044379,103.893944 C72.1722982,112.099974 76.9468051,120.306004 81.7279587,128.512034 C81.8165807,128.665897 81.9118492,128.817562 82.0204111,129 C83.3120759,127.71854 84.5793696,126.465656 85.8355856,125.203978 C85.8910572,125.111239 85.9054866,124.999897 85.8754654,124.896252 C85.8314777,124.78397 85.773417,124.677627 85.7026527,124.579734 C78.8684242,112.834854 72.0297646,101.095102 65.1866739,89.3604792 C65.0287363,89.1488555 65.0233992,88.8611631 65.1733806,88.6439169 C67.9206607,83.9459648 70.6612942,79.2443492 73.395281,74.5390702 C77.5309714,67.4335275 81.6666619,60.3265194 85.8023523,53.2180459 C85.8755136,53.13419 85.9091241,53.0233427 85.8947377,52.9133589 C85.8803513,52.803375 85.8193358,52.7047105 85.7270237,52.6421585 C84.5638607,51.4969777 83.3984823,50.3298165 82.2242416,49.1692494 C82.1688529,49.1142983 82.1001709,49.0659413 82.0248422,49 C81.9450825,49.1318826 81.8719694,49.2417848 81.8032874,49.3560831 C77.0073635,57.5928857 72.2151321,65.8267575 67.4265934,74.0576986 C67.2905478,74.3514445 66.9821933,74.5277662 66.6577981,74.4973074 C59.6684812,74.4973074 52.427889,74.4973074 45.4385722,74.4973074 C45.0973777,74.4973074 44.9777381,74.5742389 44.9843847,74.9369161 C45.0043247,76.4469722 44.9843847,77.9570282 44.9843847,79.4670843 C44.9843847,79.5967689 44.9954625,79.7242554 45.0043247,79.906693 L64.0013555,79.906693 C63.9171646,80.0671502 63.866207,80.1726563 63.8063872,80.2759644 C62.698613,82.1684801 61.5908388,84.0565996 60.5096511,85.9557094 C60.3911359,86.2075287 60.1231664,86.3555199 59.8449866,86.3227827 C52.8305601,86.3139905 45.5633814,86.3139905 38.5460009,86.3227827 C38.4019902,86.3227827 38.255764,86.3051984 38.1028912,86.2964062 L38,91.7057918 Z M94.3147982,110.307616 L119.322547,110.307616 L119.322547,103.568834 L101.136361,103.568834 L101.136361,67.7328827 L94.3147982,67.7328827 L94.3147982,110.307616 Z" id="Shape" fill="#FFFFFF" fill-rule="nonzero"></path>
                <path d="M67.4057787,182.034091 L74.6373822,182.034091 L74.6373822,184.772727 L64,184.772727 L64,168.227273 L67.4057787,168.227273 L67.4057787,182.034091 Z M97.9607605,182.681818 C97.3477172,183.41667 96.4811444,183.98674 95.361016,184.392045 C94.2408877,184.797351 92.999683,185 91.6373647,185 C90.2069304,185 88.9524812,184.687503 87.8739792,184.0625 C86.7954772,183.437497 85.9629618,182.530309 85.3764081,181.340909 C84.7898544,180.151509 84.4890137,178.753796 84.4738768,177.147727 L84.4738768,176.022727 C84.4738768,174.371204 84.7520126,172.941294 85.3082926,171.732955 C85.8645725,170.524615 86.6668146,169.600382 87.7150428,168.960227 C88.7632711,168.320073 89.9912312,168 91.3989601,168 C93.3591848,168 94.8917699,168.467798 95.9967614,169.403409 C97.1017529,170.33902 97.7564127,171.700749 97.9607605,173.488636 L94.6458025,173.488636 C94.4944338,172.541662 94.1595356,171.848487 93.6410978,171.409091 C93.12266,170.969695 92.4093457,170.75 91.5011335,170.75 C90.343163,170.75 89.4614535,171.185602 88.8559787,172.056818 C88.2505039,172.928035 87.9439869,174.223476 87.9364185,175.943182 L87.9364185,177 C87.9364185,178.734857 88.2656404,180.04545 88.9240943,180.931818 C89.5825481,181.818186 90.5475091,182.261364 91.8190062,182.261364 C93.0980717,182.261364 94.0100544,181.988639 94.5549817,181.443182 L94.5549817,178.590909 L91.4557231,178.590909 L91.4557231,176.079545 L97.9607605,176.079545 L97.9607605,182.681818 Z M121.522543,168.227273 L121.522543,179.125 C121.522543,180.935615 120.956811,182.367419 119.82533,183.420455 C118.693849,184.47349 117.14802,185 115.187795,185 C113.257844,185 111.725259,184.488641 110.589994,183.465909 C109.454728,182.443177 108.875752,181.037888 108.853046,179.25 L108.853046,168.227273 L112.258825,168.227273 L112.258825,179.147727 C112.258825,180.231066 112.51804,181.020831 113.036478,181.517045 C113.554916,182.01326 114.272014,182.261364 115.187795,182.261364 C117.102609,182.261364 118.075138,181.253798 118.105412,179.238636 L118.105412,168.227273 L121.522543,168.227273 Z M137.058041,168.227273 L141.303912,180.227273 L145.527077,168.227273 L150,168.227273 L150,184.772727 L146.582869,184.772727 L146.582869,180.25 L146.923447,172.443182 L142.461876,184.772727 L140.123242,184.772727 L135.673024,172.454545 L136.013602,180.25 L136.013602,184.772727 L132.607823,184.772727 L132.607823,168.227273 L137.058041,168.227273 Z" id="LGUM" fill="#FFFFFF"></path>
                <path d="M66.1503321,143.139831 L66.1503321,152.026836 L70.6045914,152.026836 L70.6045914,153.860169 L64,153.860169 L64,143.139831 L66.1503321,143.139831 Z M72.8454201,143.139831 L79.4500116,143.139831 L79.4500116,144.988701 L74.9957522,144.988701 L74.9957522,147.396893 L78.9892261,147.396893 L78.9892261,149.230226 L74.9957522,149.230226 L74.9957522,152.026836 L79.4500116,152.026836 L79.4500116,153.860169 L72.8454201,153.860169 L72.8454201,143.139831 Z M85.8071903,153.860169 L82.0441091,153.860169 L82.0441091,143.139831 L85.8071903,143.139831 C88.2032746,143.139831 89.8774618,144.382768 89.8774618,147.800847 L89.8774618,149.199153 C89.8774618,152.601695 88.2032746,153.860169 85.8071903,153.860169 Z M85.8071903,152.026836 C87.2356252,152.026836 87.7271297,151.048023 87.7271297,149.199153 L87.7271297,147.800847 C87.7271297,145.951977 87.2356252,144.988701 85.8071903,144.988701 L84.1944412,144.988701 L84.1944412,152.026836 L85.8071903,152.026836 Z M96.7676572,148.282486 L100.622895,148.282486 L100.622895,149.261299 C100.622895,152.539548 99.117663,154 96.7215786,154 C94.3408538,154 92.6666667,152.539548 92.6666667,149.261299 L92.6666667,147.894068 C92.6666667,144.429379 94.3408538,143 96.7215786,143 C98.9487083,143 100.284986,144.274011 100.607536,146.464689 L98.5493609,146.464689 C98.3650467,145.485876 97.7967447,144.833333 96.7215786,144.833333 C95.4774579,144.833333 94.8169988,145.687853 94.8169988,147.738701 L94.8169988,149.261299 C94.8169988,151.312147 95.4774579,152.166667 96.7215786,152.166667 C97.9349803,152.166667 98.4264848,151.405367 98.5493609,150.115819 L96.7676572,150.115819 L96.7676572,148.282486 Z M103.252279,143.139831 L109.85687,143.139831 L109.85687,144.988701 L105.402611,144.988701 L105.402611,147.396893 L109.396085,147.396893 L109.396085,149.230226 L105.402611,149.230226 L105.402611,152.026836 L109.85687,152.026836 L109.85687,153.860169 L103.252279,153.860169 L103.252279,143.139831 Z M120.591511,153.860169 L118.226145,153.860169 L116.321566,149.649718 L114.6013,149.649718 L114.6013,153.860169 L112.450968,153.860169 L112.450968,143.139831 L116.244768,143.139831 C118.686931,143.139831 120.207523,144.242938 120.207523,146.418079 C120.207523,147.862994 119.547064,148.810734 118.3951,149.292373 L120.591511,153.860169 Z M114.6013,147.816384 L116.045094,147.816384 C117.319934,147.816384 118.057191,147.536723 118.057191,146.418079 C118.057191,145.299435 117.319934,144.988701 116.045094,144.988701 L114.6013,144.988701 L114.6013,147.816384 Z M125.33594,143.139831 L125.33594,153.860169 L123.185608,153.860169 L123.185608,143.139831 L125.33594,143.139831 Z M134.672865,143.139831 L136.823197,143.139831 L136.823197,149.509887 C136.823197,152.679379 135.102931,154 132.752925,154 C130.402919,154 128.682654,152.679379 128.682654,149.525424 L128.682654,143.139831 L130.832986,143.139831 L130.832986,149.525424 C130.832986,151.358757 131.432007,152.166667 132.752925,152.166667 C134.073843,152.166667 134.672865,151.358757 134.672865,149.525424 L134.672865,143.139831 Z M142.028412,143.139831 L145.008158,148.981638 L147.957185,143.139831 L150,143.139831 L150,153.860169 L147.941825,153.860169 L147.941825,147.210452 L145.637898,151.933616 L144.332339,151.933616 L142.059131,147.257062 L142.059131,153.860169 L140.016315,153.860169 L140.016315,143.139831 L142.028412,143.139831 Z" id="LEDGERIUM-Copy" fill="#FFFFFF"></path>
                <text id="0X17" font-family="Roboto-Bold, Roboto" font-size="21.504" font-weight="bold" letter-spacing="1.39776001" fill="#FFFFFF">
                    <tspan x="17" y="36">0X17</tspan>
                </text>
            </g>
        </g>
    </g>
</svg>